G04 Layer_Color=65535*
%FSLAX24Y24*%
%MOIN*%
G70*
G01*
G75*
%ADD18C,0.0100*%
%ADD34C,0.0098*%
%ADD35C,0.0079*%
%ADD36C,0.0080*%
D18*
X-8516Y11672D02*
Y21476D01*
X-16724Y11672D02*
Y21476D01*
X-12787Y11672D02*
Y21476D01*
X-16724Y11672D02*
X-8516D01*
X-16724Y21476D02*
X-8516D01*
Y-3295D02*
Y6508D01*
X-16724Y-3295D02*
Y6508D01*
X-12787Y-3295D02*
Y6508D01*
X-16724Y-3295D02*
X-8516D01*
X-16724Y6508D02*
X-8516D01*
X-5550Y-1300D02*
Y-900D01*
X-5350D01*
X-5283Y-967D01*
Y-1100D01*
X-5350Y-1167D01*
X-5550D01*
X-5417D02*
X-5283Y-1300D01*
X-4884D02*
X-5150D01*
X-4884Y-1033D01*
Y-967D01*
X-4950Y-900D01*
X-5083D01*
X-5150Y-967D01*
X-2350Y-1300D02*
Y-900D01*
X-2150D01*
X-2083Y-967D01*
Y-1100D01*
X-2150Y-1167D01*
X-2350D01*
X-2217D02*
X-2083Y-1300D01*
X-1950D02*
X-1817D01*
X-1883D01*
Y-900D01*
X-1950Y-967D01*
X-5550Y-2750D02*
Y-3150D01*
X-5350D01*
X-5283Y-3083D01*
Y-2817D01*
X-5350Y-2750D01*
X-5550D01*
X-4884Y-3150D02*
X-5150D01*
X-4884Y-2883D01*
Y-2817D01*
X-4950Y-2750D01*
X-5083D01*
X-5150Y-2817D01*
X-2350Y-2750D02*
Y-3150D01*
X-2150D01*
X-2083Y-3083D01*
Y-2817D01*
X-2150Y-2750D01*
X-2350D01*
X-1950Y-3150D02*
X-1817D01*
X-1883D01*
Y-2750D01*
X-1950Y-2817D01*
X-11748Y22372D02*
X-11948D01*
X-11848D01*
Y21872D01*
X-11948Y21772D01*
X-12048D01*
X-12148Y21872D01*
X-11548Y22272D02*
X-11448Y22372D01*
X-11248D01*
X-11148Y22272D01*
Y22172D01*
X-11248Y22072D01*
X-11348D01*
X-11248D01*
X-11148Y21972D01*
Y21872D01*
X-11248Y21772D01*
X-11448D01*
X-11548Y21872D01*
X-11948Y7372D02*
X-12148D01*
X-12048D01*
Y6872D01*
X-12148Y6772D01*
X-12248D01*
X-12348Y6872D01*
X-11348Y6772D02*
X-11748D01*
X-11348Y7172D01*
Y7272D01*
X-11448Y7372D01*
X-11648D01*
X-11748Y7272D01*
D34*
X2615Y1416D02*
G03*
X2615Y1416I-49J0D01*
G01*
D35*
X2045Y2799D02*
X2360D01*
X2666Y1967D02*
X4634D01*
X2666Y2833D02*
X4634D01*
X2666Y1967D02*
Y2833D01*
X4634Y1967D02*
Y2833D01*
X-3233Y-755D02*
X-2761D01*
X-4483D02*
X-4011D01*
X-3837Y-3335D02*
Y-2744D01*
X-4663Y-3335D02*
X-4506Y-3532D01*
X-3994D02*
X-3837Y-3335D01*
X-4663D02*
Y-2744D01*
X-4506Y-3532D02*
X-3994D01*
X-4663Y-1642D02*
X-3837D01*
Y-2311D02*
Y-1642D01*
X-4663Y-2311D02*
Y-1642D01*
X-2587Y-3335D02*
Y-2744D01*
X-3413Y-3335D02*
X-3256Y-3532D01*
X-2744D02*
X-2587Y-3335D01*
X-3413D02*
Y-2744D01*
X-3256Y-3532D02*
X-2744D01*
X-3413Y-1642D02*
X-2587D01*
Y-2311D02*
Y-1642D01*
X-3413Y-2311D02*
Y-1642D01*
D36*
X1452Y2918D02*
X1385Y2984D01*
X1252D01*
X1186Y2918D01*
Y2651D01*
X1252Y2584D01*
X1385D01*
X1452Y2651D01*
X1585Y2918D02*
X1652Y2984D01*
X1785D01*
X1852Y2918D01*
Y2851D01*
X1785Y2784D01*
X1719D01*
X1785D01*
X1852Y2718D01*
Y2651D01*
X1785Y2584D01*
X1652D01*
X1585Y2651D01*
X3000Y4400D02*
Y4067D01*
X3067Y4000D01*
X3200D01*
X3267Y4067D01*
Y4400D01*
X3666Y4000D02*
X3400D01*
X3666Y4267D01*
Y4333D01*
X3600Y4400D01*
X3467D01*
X3400Y4333D01*
X2200Y-1867D02*
X2267Y-1800D01*
X2400D01*
X2467Y-1867D01*
Y-1933D01*
X2400Y-2000D01*
X2333D01*
X2400D01*
X2467Y-2067D01*
Y-2133D01*
X2400Y-2200D01*
X2267D01*
X2200Y-2133D01*
X2600Y-1800D02*
Y-2067D01*
X2733Y-2200D01*
X2866Y-2067D01*
Y-1800D01*
X3000Y-1867D02*
X3066Y-1800D01*
X3200D01*
X3266Y-1867D01*
Y-1933D01*
X3200Y-2000D01*
X3133D01*
X3200D01*
X3266Y-2067D01*
Y-2133D01*
X3200Y-2200D01*
X3066D01*
X3000Y-2133D01*
X2467Y-867D02*
X2400Y-800D01*
X2267D01*
X2200Y-867D01*
Y-1133D01*
X2267Y-1200D01*
X2400D01*
X2467Y-1133D01*
Y-1000D01*
X2333D01*
X2600Y-1200D02*
Y-800D01*
X2866Y-1200D01*
Y-800D01*
X3000D02*
Y-1200D01*
X3200D01*
X3266Y-1133D01*
Y-867D01*
X3200Y-800D01*
X3000D01*
X2200Y-200D02*
X2333D01*
X2267D01*
Y200D01*
X2200Y133D01*
X2800Y-200D02*
X2533D01*
X2800Y67D01*
Y133D01*
X2733Y200D01*
X2600D01*
X2533Y133D01*
X2933Y200D02*
Y-67D01*
X3066Y-200D01*
X3200Y-67D01*
Y200D01*
X2767Y4900D02*
X2500D01*
X2767Y5167D01*
Y5233D01*
X2700Y5300D01*
X2567D01*
X2500Y5233D01*
X2900Y5300D02*
X3166D01*
Y5233D01*
X2900Y4967D01*
Y4900D01*
X3300D02*
Y5300D01*
X3566Y4900D01*
Y5300D01*
X2777Y5650D02*
X2510D01*
X2777Y5917D01*
Y5983D01*
X2710Y6050D01*
X2577D01*
X2510Y5983D01*
X2910Y6050D02*
X3176D01*
Y5983D01*
X2910Y5717D01*
Y5650D01*
X3310D02*
Y6050D01*
X3510D01*
X3576Y5983D01*
Y5850D01*
X3510Y5783D01*
X3310D01*
X2767Y7100D02*
X2500D01*
X2767Y7367D01*
Y7433D01*
X2700Y7500D01*
X2567D01*
X2500Y7433D01*
X3166Y7500D02*
X3033Y7433D01*
X2900Y7300D01*
Y7167D01*
X2967Y7100D01*
X3100D01*
X3166Y7167D01*
Y7233D01*
X3100Y7300D01*
X2900D01*
X3300Y7100D02*
Y7500D01*
X3500D01*
X3566Y7433D01*
Y7300D01*
X3500Y7233D01*
X3300D01*
X2767Y6400D02*
X2500D01*
X2767Y6667D01*
Y6733D01*
X2700Y6800D01*
X2567D01*
X2500Y6733D01*
X3166Y6800D02*
X3033Y6733D01*
X2900Y6600D01*
Y6467D01*
X2967Y6400D01*
X3100D01*
X3166Y6467D01*
Y6533D01*
X3100Y6600D01*
X2900D01*
X3300Y6400D02*
Y6800D01*
X3566Y6400D01*
Y6800D01*
X2777Y7800D02*
X2510D01*
X2777Y8067D01*
Y8133D01*
X2710Y8200D01*
X2577D01*
X2510Y8133D01*
X3176Y8200D02*
X2910D01*
Y8000D01*
X3043Y8067D01*
X3110D01*
X3176Y8000D01*
Y7867D01*
X3110Y7800D01*
X2977D01*
X2910Y7867D01*
X3310Y7800D02*
Y8200D01*
X3576Y7800D01*
Y8200D01*
X2767Y8500D02*
X2500D01*
X2767Y8767D01*
Y8833D01*
X2700Y8900D01*
X2567D01*
X2500Y8833D01*
X3166Y8900D02*
X2900D01*
Y8700D01*
X3033Y8767D01*
X3100D01*
X3166Y8700D01*
Y8567D01*
X3100Y8500D01*
X2967D01*
X2900Y8567D01*
X3300Y8500D02*
Y8900D01*
X3500D01*
X3566Y8833D01*
Y8700D01*
X3500Y8633D01*
X3300D01*
M02*
