G04 Layer_Physical_Order=4*
G04 Layer_Color=16711680*
%FSLAX24Y24*%
%MOIN*%
G70*
G01*
G75*
%ADD10C,0.0050*%
%ADD11C,0.0050*%
%ADD16P,0.0639X8X202.5*%
%ADD17C,0.0200*%
%ADD18C,0.0100*%
%ADD19C,0.0070*%
%ADD20O,0.0340X0.0550*%
%ADD21C,0.2283*%
%ADD22C,0.0394*%
%ADD23C,0.0236*%
%ADD30R,0.0394X0.0394*%
%ADD31R,0.0630X0.0118*%
%ADD32C,0.0252*%
%ADD33P,0.0639X8X22.5*%
D10*
X0Y16500D02*
G03*
X-25Y16440I60J-60D01*
G01*
X-150Y16300D02*
G03*
X-25Y16425I0J125D01*
G01*
X-1627Y16777D02*
G03*
X-475Y16300I1153J1153D01*
G01*
X-4743Y19893D02*
G03*
X-5967Y20400I-1223J-1223D01*
G01*
X-11442D02*
G03*
X-11755Y20087I0J-313D01*
G01*
X572Y13607D02*
G03*
X525Y13560I0J-47D01*
G01*
X572Y9107D02*
G03*
X525Y9060I0J-47D01*
G01*
X1928Y11393D02*
G03*
X1975Y11440I0J47D01*
G01*
X-25Y17575D02*
G03*
X-150Y17700I-125J0D01*
G01*
X-1688Y18207D02*
G03*
X-465Y17700I1223J1223D01*
G01*
X-25Y17560D02*
G03*
X0Y17500I85J0D01*
G01*
X-11455Y21300D02*
G03*
X-11655Y21100I0J-200D01*
G01*
X-4304Y20823D02*
G03*
X-5457Y21300I-1153J-1153D01*
G01*
X-11655Y21071D02*
G03*
X-11409Y20826I245J0D01*
G01*
X572Y12107D02*
G03*
X525Y12060I0J-47D01*
G01*
X1928Y14393D02*
G03*
X1975Y14440I0J47D01*
G01*
X-25Y16075D02*
G03*
X-150Y16200I-125J0D01*
G01*
X-1698Y16707D02*
G03*
X-475Y16200I1223J1223D01*
G01*
X-25Y16060D02*
G03*
X0Y16000I85J0D01*
G01*
X-11655Y20087D02*
G03*
X-11409Y19842I245J0D01*
G01*
X-11442Y20300D02*
G03*
X-11655Y20087I0J-213D01*
G01*
X-4814Y19823D02*
G03*
X-5967Y20300I-1153J-1153D01*
G01*
X1928Y9893D02*
G03*
X1975Y9940I0J47D01*
G01*
X-6643Y13943D02*
G03*
X-7867Y14450I-1223J-1223D01*
G01*
X-11486D02*
G03*
X-11755Y14181I0J-269D01*
G01*
X-850Y9750D02*
G03*
X-838Y9755I0J17D01*
G01*
X-2804Y10104D02*
G03*
X-1950Y9750I854J854D01*
G01*
X1975Y11060D02*
G03*
X2000Y11000I85J0D01*
G01*
X1975Y11060D02*
G03*
X1928Y11107I-47J0D01*
G01*
Y12893D02*
G03*
X1975Y12940I0J47D01*
G01*
X-11505Y17400D02*
G03*
X-11755Y17150I0J-250D01*
G01*
X-5452Y16893D02*
G03*
X-6675Y17400I-1223J-1223D01*
G01*
X-875Y12900D02*
G03*
X-650Y12993I0J318D01*
G01*
X-1712Y13153D02*
G03*
X-1100Y12900I612J612D01*
G01*
X525Y16940D02*
G03*
X500Y17000I-85J0D01*
G01*
X525Y16940D02*
G03*
X572Y16893I47J0D01*
G01*
X0Y7500D02*
G03*
X-25Y7440I60J-60D01*
G01*
X-150Y7300D02*
G03*
X-25Y7425I0J125D01*
G01*
X-3486Y7777D02*
G03*
X-2333Y7300I1153J1153D01*
G01*
X-8109Y12400D02*
G03*
X-8350Y12500I-241J-242D01*
G01*
X-9733D02*
G03*
X-9983Y12250I0J-250D01*
G01*
X1975Y14060D02*
G03*
X2000Y14000I85J0D01*
G01*
X1975Y14060D02*
G03*
X1928Y14107I-47J0D01*
G01*
X1975Y9560D02*
G03*
X2000Y9500I85J0D01*
G01*
X1975Y9560D02*
G03*
X1928Y9607I-47J0D01*
G01*
X-6714Y13873D02*
G03*
X-7867Y14350I-1153J-1153D01*
G01*
X-11486D02*
G03*
X-11655Y14181I0J-169D01*
G01*
D02*
G03*
X-11409Y13936I245J0D01*
G01*
X-838Y9645D02*
G03*
X-850Y9650I-12J-12D01*
G01*
X-2874Y10033D02*
G03*
X-1950Y9650I924J924D01*
G01*
X-25Y7075D02*
G03*
X-150Y7200I-125J0D01*
G01*
X-3557Y7707D02*
G03*
X-2333Y7200I1223J1223D01*
G01*
X-25Y7060D02*
G03*
X0Y7000I85J0D01*
G01*
X-8179Y12329D02*
G03*
X-8350Y12400I-171J-171D01*
G01*
X-9733D02*
G03*
X-9883Y12250I0J-150D01*
G01*
Y12213D02*
G03*
X-9638Y11968I245J0D01*
G01*
X0Y10500D02*
G03*
X-25Y10440I60J-60D01*
G01*
X-150Y10300D02*
G03*
X-25Y10425I0J125D01*
G01*
X-1777Y10777D02*
G03*
X-625Y10300I1153J1153D01*
G01*
X-5943Y14943D02*
G03*
X-7167Y15450I-1223J-1223D01*
G01*
X-11455D02*
G03*
X-11755Y15150I0J-300D01*
G01*
X-11984Y14920D02*
G03*
X-11755Y15150I0J230D01*
G01*
X525Y15440D02*
G03*
X500Y15500I-85J0D01*
G01*
X525Y15440D02*
G03*
X572Y15393I47J0D01*
G01*
Y16607D02*
G03*
X525Y16560I0J-47D01*
G01*
X1975Y12560D02*
G03*
X2000Y12500I85J0D01*
G01*
X1975Y12560D02*
G03*
X1928Y12607I-47J0D01*
G01*
X-5523Y16823D02*
G03*
X-6675Y17300I-1153J-1153D01*
G01*
X-11505D02*
G03*
X-11655Y17150I0J-150D01*
G01*
Y17134D02*
G03*
X-11409Y16889I245J0D01*
G01*
X-1783Y13083D02*
G03*
X-1100Y12800I683J683D01*
G01*
X-650Y12707D02*
G03*
X-875Y12800I-225J-225D01*
G01*
X525Y18975D02*
G03*
X723Y18893I198J198D01*
G01*
X594Y18988D02*
G03*
X500Y19000I-94J-352D01*
G01*
X572Y15107D02*
G03*
X525Y15060I0J-47D01*
G01*
X0Y13500D02*
G03*
X-25Y13440I60J-60D01*
G01*
X-150Y13300D02*
G03*
X-25Y13425I0J125D01*
G01*
X-847Y13547D02*
G03*
X-250Y13300I597J597D01*
G01*
X-11505Y18400D02*
G03*
X-11755Y18150I0J-250D01*
G01*
X-5193Y17893D02*
G03*
X-6417Y18400I-1223J-1223D01*
G01*
X0Y9000D02*
G03*
X-25Y8940I60J-60D01*
G01*
X-150Y8800D02*
G03*
X-25Y8925I0J125D01*
G01*
X-3477Y9277D02*
G03*
X-2325Y8800I1153J1153D01*
G01*
X-9680Y13500D02*
G03*
X-9983Y13200I0J-303D01*
G01*
X-7234Y13034D02*
G03*
X-8359Y13500I-1124J-1124D01*
G01*
X-25Y10075D02*
G03*
X-150Y10200I-125J0D01*
G01*
X-1848Y10707D02*
G03*
X-625Y10200I1223J1223D01*
G01*
X-25Y10060D02*
G03*
X0Y10000I85J0D01*
G01*
X-11455Y15350D02*
G03*
X-11655Y15150I0J-200D01*
G01*
X-6014Y14873D02*
G03*
X-7167Y15350I-1153J-1153D01*
G01*
X-11655Y15150D02*
G03*
X-11425Y14920I230J0D01*
G01*
X0Y12000D02*
G03*
X-25Y11940I60J-60D01*
G01*
X-150Y11800D02*
G03*
X-25Y11925I0J125D01*
G01*
X-1900Y12300D02*
G03*
X-693Y11800I1207J1207D01*
G01*
X-5543Y15943D02*
G03*
X-6767Y16450I-1223J-1223D01*
G01*
X-9683D02*
G03*
X-9983Y16150I0J-300D01*
G01*
X-25Y8575D02*
G03*
X-150Y8700I-125J0D01*
G01*
X-3548Y9207D02*
G03*
X-2325Y8700I1223J1223D01*
G01*
X-25Y8560D02*
G03*
X0Y8500I85J0D01*
G01*
X-9680Y13400D02*
G03*
X-9883Y13200I0J-203D01*
G01*
D02*
G03*
X-9883Y13197I203J-3D01*
G01*
X-7276Y12934D02*
G03*
X-8400Y13400I-1124J-1124D01*
G01*
X-9883Y13197D02*
G03*
X-9638Y12952I245J0D01*
G01*
X-25Y13075D02*
G03*
X-150Y13200I-125J0D01*
G01*
X-918Y13477D02*
G03*
X-250Y13200I668J668D01*
G01*
X-25Y13060D02*
G03*
X0Y13000I85J0D01*
G01*
X-11505Y18300D02*
G03*
X-11655Y18150I0J-150D01*
G01*
X-5264Y17823D02*
G03*
X-6417Y18300I-1153J-1153D01*
G01*
X-11655Y18118D02*
G03*
X-11409Y17873I245J0D01*
G01*
X1928Y15893D02*
G03*
X1975Y15940I0J47D01*
G01*
X723Y18607D02*
G03*
X525Y18525I0J-280D01*
G01*
X500Y18500D02*
G03*
X594Y18512I0J365D01*
G01*
X525Y10940D02*
G03*
X500Y11000I-85J0D01*
G01*
X525Y10940D02*
G03*
X572Y10893I47J0D01*
G01*
X-25Y11575D02*
G03*
X-150Y11700I-125J0D01*
G01*
X-1919Y12177D02*
G03*
X-766Y11700I1153J1153D01*
G01*
X-25Y11560D02*
G03*
X0Y11500I85J0D01*
G01*
X-9883Y16150D02*
G03*
X-9638Y15905I245J0D01*
G01*
X-9683Y16350D02*
G03*
X-9883Y16150I0J-200D01*
G01*
X-5614Y15873D02*
G03*
X-6767Y16350I-1153J-1153D01*
G01*
X0Y15000D02*
G03*
X-25Y14940I60J-60D01*
G01*
X-150Y14800D02*
G03*
X-25Y14925I0J125D01*
G01*
X-1289Y15230D02*
G03*
X-250Y14800I1039J1039D01*
G01*
X-4952Y18893D02*
G03*
X-6175Y19400I-1223J-1223D01*
G01*
X-11455D02*
G03*
X-11755Y19100I0J-300D01*
G01*
X-11997Y18857D02*
G03*
X-11755Y19100I0J243D01*
G01*
X1975Y15560D02*
G03*
X2000Y15500I85J0D01*
G01*
X1975Y15560D02*
G03*
X1928Y15607I-47J0D01*
G01*
X0Y18000D02*
G03*
X-25Y17940I60J-60D01*
G01*
X-150Y17800D02*
G03*
X-25Y17925I0J125D01*
G01*
X-1617Y18277D02*
G03*
X-465Y17800I1153J1153D01*
G01*
X-11455Y21400D02*
G03*
X-11755Y21100I0J-300D01*
G01*
X-4233Y20893D02*
G03*
X-5457Y21400I-1223J-1223D01*
G01*
X525Y13940D02*
G03*
X500Y14000I-85J0D01*
G01*
X525Y13940D02*
G03*
X572Y13893I47J0D01*
G01*
X-25Y14575D02*
G03*
X-150Y14700I-125J0D01*
G01*
X-1330Y15130D02*
G03*
X-291Y14700I1039J1039D01*
G01*
X-25Y14560D02*
G03*
X0Y14500I85J0D01*
G01*
X-11455Y19300D02*
G03*
X-11655Y19100I0J-200D01*
G01*
X-5023Y18823D02*
G03*
X-6175Y19300I-1153J-1153D01*
G01*
X-11655Y19100D02*
G03*
X-11412Y18857I243J0D01*
G01*
X525Y9440D02*
G03*
X500Y9500I-85J0D01*
G01*
X525Y9440D02*
G03*
X572Y9393I47J0D01*
G01*
Y10607D02*
G03*
X525Y10560I0J-47D01*
G01*
Y12440D02*
G03*
X500Y12500I-85J0D01*
G01*
X525Y12440D02*
G03*
X572Y12393I47J0D01*
G01*
X2000Y11500D02*
G03*
X1975Y11440I60J-60D01*
G01*
X-10228Y11968D02*
G03*
X-9983Y12213I0J245D01*
G01*
X-10228Y12952D02*
G03*
X-9983Y13197I0J245D01*
G01*
X-9983Y13200D02*
G03*
X-9983Y13197I303J-3D01*
G01*
X-10228Y15905D02*
G03*
X-9983Y16150I0J245D01*
G01*
X-12000Y19842D02*
G03*
X-11755Y20087I0J245D01*
G01*
X-12000Y20826D02*
G03*
X-11755Y21071I0J245D01*
G01*
X500Y16500D02*
G03*
X525Y16560I-60J60D01*
G01*
X500Y15000D02*
G03*
X525Y15060I-60J60D01*
G01*
X500Y13500D02*
G03*
X525Y13560I-60J60D01*
G01*
X500Y10500D02*
G03*
X525Y10560I-60J60D01*
G01*
X2000Y16000D02*
G03*
X1975Y15940I60J-60D01*
G01*
X2000Y14500D02*
G03*
X1975Y14440I60J-60D01*
G01*
X500Y9000D02*
G03*
X525Y9060I-60J60D01*
G01*
X-12000Y17873D02*
G03*
X-11755Y18119I0J245D01*
G01*
X-12000Y13936D02*
G03*
X-11755Y14181I0J245D01*
G01*
X2000Y10000D02*
G03*
X1975Y9940I60J-60D01*
G01*
X500Y12000D02*
G03*
X525Y12060I-60J60D01*
G01*
X-1712Y13154D02*
G03*
X-1712Y13153I612J612D01*
G01*
X-12000Y16889D02*
G03*
X-11755Y17134I0J245D01*
G01*
X2000Y13000D02*
G03*
X1975Y12940I60J-60D01*
G01*
X-25Y16425D02*
Y16440D01*
X-475Y16300D02*
X-150D01*
X-11442Y20400D02*
X-5967D01*
X572Y13607D02*
X750D01*
X572Y9107D02*
X750D01*
X1750Y11393D02*
X1928D01*
X-465Y17700D02*
X-150D01*
X-25Y17560D02*
Y17575D01*
X-11455Y21300D02*
X-5457D01*
X-11655Y21071D02*
Y21100D01*
X572Y12107D02*
X750D01*
X1750Y14393D02*
X1928D01*
X-475Y16200D02*
X-150D01*
X-25Y16060D02*
Y16075D01*
X-11442Y20300D02*
X-5967D01*
X1750Y9893D02*
X1928D01*
X-11486Y14450D02*
X-7867D01*
X-838Y9755D02*
X-750Y9843D01*
X-838Y9755D02*
X-838Y9755D01*
X-1950Y9750D02*
X-850D01*
X1750Y11107D02*
X1928D01*
X1750Y12893D02*
X1928D01*
X-11505Y17400D02*
X-6675D01*
X-11755Y17134D02*
Y17150D01*
X-1100Y12900D02*
X-875D01*
X572Y16893D02*
X750D01*
X-25Y7425D02*
Y7440D01*
X-8109Y12400D02*
X-3486Y7777D01*
X-2333Y7300D02*
X-150D01*
X-8109Y12400D02*
X-8109Y12400D01*
X-9733Y12500D02*
X-8350D01*
X-9983Y12213D02*
Y12250D01*
X1750Y14107D02*
X1928D01*
X1750Y9607D02*
X1928D01*
X-11486Y14350D02*
X-7867D01*
X-1950Y9650D02*
X-850D01*
X-6714Y13873D02*
X-2874Y10033D01*
X-838Y9645D02*
X-750Y9557D01*
X-838Y9645D02*
X-838Y9645D01*
X-2333Y7200D02*
X-150D01*
X-8179Y12329D02*
X-3557Y7707D01*
X-25Y7060D02*
Y7075D01*
X-9733Y12400D02*
X-8350D01*
X-9883Y12213D02*
Y12250D01*
X-25Y10425D02*
Y10440D01*
X-625Y10300D02*
X-150D01*
X-11455Y15450D02*
X-7167D01*
X-12000Y14920D02*
X-11984D01*
X572Y15393D02*
X750D01*
X572Y16607D02*
X750D01*
X1750Y12607D02*
X1928D01*
X-11505Y17300D02*
X-6675D01*
X-5523Y16823D02*
X-1783Y13083D01*
X-11655Y17134D02*
Y17150D01*
X-1100Y12800D02*
X-875D01*
X723Y18893D02*
X750D01*
X500Y19000D02*
X525Y18975D01*
X572Y15107D02*
X750D01*
X-5193Y17893D02*
X-847Y13547D01*
X-25Y13425D02*
Y13440D01*
X-250Y13300D02*
X-150D01*
X-11505Y18400D02*
X-6417D01*
X-11755Y18119D02*
Y18150D01*
X-25Y8925D02*
Y8940D01*
X-2325Y8800D02*
X-150D01*
X-9680Y13500D02*
X-8359D01*
X-625Y10200D02*
X-150D01*
X-25Y10060D02*
Y10075D01*
X-11455Y15350D02*
X-7167D01*
X-11425Y14920D02*
X-11409D01*
X-25Y11925D02*
Y11940D01*
X-693Y11800D02*
X-150D01*
X-9683Y16450D02*
X-6767D01*
X-2325Y8700D02*
X-150D01*
X-25Y8560D02*
Y8575D01*
X-9680Y13400D02*
X-8400D01*
X-250Y13200D02*
X-150D01*
X-25Y13060D02*
Y13075D01*
X-11505Y18300D02*
X-6417D01*
X-11655Y18118D02*
Y18150D01*
X1750Y15893D02*
X1928D01*
X723Y18607D02*
X750D01*
X500Y18500D02*
X525Y18525D01*
X572Y10893D02*
X750D01*
X-766Y11700D02*
X-150D01*
X-25Y11560D02*
Y11575D01*
X-9683Y16350D02*
X-6767D01*
X-25Y14925D02*
Y14940D01*
X-250Y14800D02*
X-150D01*
X-11455Y19400D02*
X-6175D01*
X-12000Y18857D02*
X-11997D01*
X1750Y15607D02*
X1928D01*
X-25Y17925D02*
Y17940D01*
X-465Y17800D02*
X-150D01*
X-11455Y21400D02*
X-5457D01*
X-11755Y21071D02*
Y21100D01*
X572Y13893D02*
X750D01*
X-291Y14700D02*
X-150D01*
X-25Y14560D02*
Y14575D01*
X-11455Y19300D02*
X-6175D01*
X-11412Y18857D02*
X-11409D01*
X572Y9393D02*
X750D01*
X572Y10607D02*
X750D01*
X572Y12393D02*
X750D01*
X-7234Y13034D02*
X-3477Y9277D01*
X-7276Y12934D02*
X-3548Y9207D01*
X-5943Y14943D02*
X-1777Y10777D01*
X-6014Y14873D02*
X-1848Y10707D01*
X-5614Y15873D02*
X-1919Y12177D01*
X-5543Y15943D02*
X-1900Y12300D01*
X-4814Y19823D02*
X-1698Y16707D01*
X-4743Y19893D02*
X-1627Y16777D01*
X-4304Y20823D02*
X-1688Y18207D01*
X-4233Y20893D02*
X-1617Y18277D01*
X-5264Y17823D02*
X-918Y13477D01*
X-4952Y18893D02*
X-1289Y15230D01*
X-5023Y18823D02*
X-1330Y15130D01*
X-6643Y13943D02*
X-2804Y10104D01*
X-5452Y16893D02*
X-1712Y13154D01*
D11*
X-838Y9755D02*
D03*
X-8109Y12400D02*
D03*
X-838Y9645D02*
D03*
D16*
X-7500Y5000D02*
D03*
Y4250D02*
D03*
Y3000D02*
D03*
Y2250D02*
D03*
Y1500D02*
D03*
Y750D02*
D03*
Y0D02*
D03*
Y-750D02*
D03*
Y-1500D02*
D03*
D17*
X-2734Y2950D02*
X-2350D01*
X-5450Y2953D02*
X-5066D01*
X3240Y-2000D02*
X3450D01*
X1599Y-359D02*
X3240Y-2000D01*
X2850Y-400D02*
X3450Y-1000D01*
X3300Y150D02*
X3450Y0D01*
X2800Y700D02*
X2850Y650D01*
X2725Y775D02*
X2800Y700D01*
X2850Y-400D02*
Y650D01*
X1599Y-359D02*
Y0D01*
X3300Y150D02*
Y1300D01*
X2800Y1800D02*
X3300Y1300D01*
X1600Y1000D02*
Y1600D01*
Y1D02*
Y1000D01*
X1050Y-549D02*
X1599Y0D01*
X1600Y1600D02*
X1775Y1775D01*
X-700Y-550D02*
X-159D01*
X-3700Y350D02*
Y1559D01*
Y-500D02*
Y350D01*
Y1559D02*
X-3364Y1896D01*
X-3700Y-500D02*
X-3550Y-650D01*
X-1300D01*
X-950Y-300D01*
X-4436Y1896D02*
Y2953D01*
X-1150Y-1000D02*
X-700Y-550D01*
X-3800Y-1000D02*
X-1150D01*
X-4100Y-700D02*
X-3800Y-1000D01*
X-4100Y-700D02*
Y350D01*
Y1559D01*
X-4436Y1896D02*
X-4100Y1559D01*
X-3364Y1896D02*
Y2947D01*
X-5050Y-550D02*
Y-219D01*
D18*
X0Y12500D02*
G03*
X-121Y12550I-121J-121D01*
G01*
X0Y12500D02*
X500Y13000D01*
X-350Y12550D02*
X-121D01*
X3400Y5585D02*
Y6240D01*
X2640Y7000D02*
X3400Y6240D01*
X2500Y7000D02*
X2640D01*
X2990Y5310D02*
Y6160D01*
X2650Y6500D02*
X2990Y6160D01*
X2500Y6500D02*
X2650D01*
X1800Y7000D02*
X2000D01*
X1550Y6750D02*
X1800Y7000D01*
X1550Y6650D02*
Y6750D01*
X1150Y6450D02*
Y6835D01*
X700Y6000D02*
X1150Y6450D01*
X500Y6000D02*
X700D01*
X850Y6650D02*
Y7000D01*
X700Y6500D02*
X850Y6650D01*
X500Y6500D02*
X700D01*
X1650Y6100D02*
Y6300D01*
X1850Y6500D01*
X2000D01*
X3200Y5100D02*
X3400D01*
X2990Y5310D02*
X3200Y5100D01*
X1150Y6835D02*
X1314Y7000D01*
X3200Y4300D02*
X3900D01*
X2500Y5000D02*
X3200Y4300D01*
X3000Y4000D02*
X4400D01*
X2500Y4500D02*
X3000Y4000D01*
X2800Y0D02*
Y700D01*
X2500Y0D02*
X2800D01*
X2500Y1000D02*
X2725Y775D01*
X2500Y3000D02*
X3950Y1550D01*
Y650D02*
Y1550D01*
X900Y-150D02*
Y350D01*
X750Y-300D02*
X900Y-150D01*
X-950Y-300D02*
X750D01*
Y500D02*
X900Y350D01*
X500Y500D02*
X750D01*
X-159Y-549D02*
X1050D01*
X1600Y1000D02*
X2000D01*
X1599Y0D02*
X2000D01*
X1775Y1775D02*
X2000Y2000D01*
X250Y9750D02*
X500Y10000D01*
X0Y9500D02*
X250Y9750D01*
X2250Y5750D02*
X2500Y5500D01*
X2000Y6000D02*
X2250Y5750D01*
X2500Y6000D01*
X2250Y1750D02*
X2500Y2000D01*
X2000Y1500D02*
X2250Y1750D01*
Y9250D02*
X2500Y9500D01*
X2000Y9000D02*
X2250Y9250D01*
Y19250D02*
X2500Y19500D01*
X2000Y19000D02*
X2250Y19250D01*
X2000Y18500D02*
Y19000D01*
X2500Y17500D02*
Y18000D01*
X2000Y16500D02*
Y17000D01*
X2500Y15500D02*
Y16000D01*
X2250Y13750D02*
X2500Y14000D01*
X2000Y13500D02*
X2250Y13750D01*
X2500Y13500D01*
X2250Y11750D02*
X2500Y11500D01*
X2000Y12000D02*
X2250Y11750D01*
X2500Y12000D01*
X2000Y10500D02*
X2500Y10000D01*
Y9500D02*
Y10000D01*
X2250Y7750D02*
X2500Y8000D01*
X2000Y7500D02*
X2250Y7750D01*
X2500Y7500D01*
X2000Y4500D02*
Y5000D01*
X2500Y2500D02*
X2800Y2200D01*
Y1800D02*
Y2200D01*
X2500Y1500D02*
X2800Y1800D01*
X2000Y1500D02*
X2500Y1000D01*
X2000Y500D02*
X2500Y1000D01*
X2000Y0D02*
X2500Y500D01*
X250Y5250D02*
X500Y5500D01*
X0Y5000D02*
X250Y5250D01*
Y6750D02*
X500Y7000D01*
X0Y6500D02*
X250Y6750D01*
Y8250D02*
X500Y8500D01*
X0Y8000D02*
X250Y8250D01*
Y19250D02*
X500Y19500D01*
X0Y19000D02*
X250Y19250D01*
Y15750D02*
X500Y16000D01*
X0Y15500D02*
X250Y15750D01*
Y14250D02*
X500Y14500D01*
X0Y14000D02*
X250Y14250D01*
Y11250D02*
X500Y11500D01*
X0Y11000D02*
X250Y11250D01*
X0Y18500D02*
Y19000D01*
X500Y17500D02*
Y18000D01*
X0Y18500D02*
X250Y18250D01*
X500Y18000D01*
X0Y17000D02*
X250Y17250D01*
X500Y17500D01*
X2000Y18500D02*
X2250Y18250D01*
X2500Y18000D01*
X2000Y17000D02*
X2250Y17250D01*
X2500Y17500D01*
X2000Y16500D02*
X2250Y16250D01*
X2500Y16000D01*
X2000Y15000D02*
X2250Y15250D01*
X2500Y15500D01*
X0Y3500D02*
X250Y3750D01*
X500Y4000D01*
X0Y2000D02*
X250Y2250D01*
X500Y2500D01*
X0Y500D02*
X250Y250D01*
X500Y0D01*
X-11409Y4874D02*
X-10933Y5350D01*
X-12000Y4874D02*
X-11526Y4400D01*
X-12000Y5858D02*
X-11558Y6300D01*
X-11868Y5400D02*
X-11409Y5858D01*
X-12150Y5400D02*
X-11868D01*
X-12400Y5650D02*
X-12150Y5400D01*
X-12400Y5650D02*
Y6300D01*
X-12050Y6650D01*
X-11558Y6300D02*
X-8550D01*
X-6450Y6000D02*
X0D01*
X-12000Y-1032D02*
X-11531Y-1500D01*
X-12450Y-497D02*
X-12000Y-47D01*
X-12450Y-2300D02*
Y-497D01*
Y-2300D02*
X-12250Y-2500D01*
X-11409Y-47D02*
X-10907Y-550D01*
X-11409Y937D02*
X-10922Y450D01*
X-11409Y1921D02*
X-10938Y1450D01*
X-12000Y1921D02*
X-11521Y2400D01*
X-12450Y1387D02*
X-12000Y937D01*
X-12450Y1387D02*
Y3150D01*
X-12200Y3400D01*
X-8116Y3000D02*
X-7500D01*
X-8516Y3400D02*
X-8116Y3000D01*
X-12200Y3400D02*
X-8516D01*
X-8366Y2250D02*
X-7500D01*
X-8516Y2400D02*
X-8366Y2250D01*
X-11521Y2400D02*
X-8516D01*
X-8466Y1500D02*
X-7500D01*
X-8516Y1450D02*
X-8466Y1500D01*
X-10938Y1450D02*
X-8516D01*
X-8216Y750D02*
X-7500D01*
X-8516Y450D02*
X-8216Y750D01*
X-10922Y450D02*
X-8516D01*
X-7966Y0D02*
X-7500D01*
X-8516Y-550D02*
X-7966Y0D01*
X-10907Y-550D02*
X-8516D01*
X-7766Y-750D02*
X-7500D01*
X-8516Y-1500D02*
X-7766Y-750D01*
X-11531Y-1500D02*
X-8516D01*
X-8500Y-2500D02*
X-7500Y-1500D01*
X-12250Y-2500D02*
X-8500D01*
X-8366Y4250D02*
X-7500D01*
X-8516Y4400D02*
X-8366Y4250D01*
X-11526Y4400D02*
X-8516D01*
X-8200Y5000D02*
X-7500D01*
X-8550Y5350D02*
X-8200Y5000D01*
X-10933Y5350D02*
X-8550D01*
X-8000Y5750D02*
X-7500D01*
X-8550Y6300D02*
X-8000Y5750D01*
Y6500D02*
X-7500D01*
X-8150Y6650D02*
X-8000Y6500D01*
X-12050Y6650D02*
X-8150D01*
X-7500Y5750D02*
X-7000D01*
X-6750Y5500D01*
X0D01*
X-7500Y6500D02*
X-6950D01*
X-6450Y6000D01*
X-7500Y1500D02*
X-7000D01*
X-7500Y2250D02*
X-7000D01*
X-7500Y3000D02*
X-7000D01*
X-7500Y750D02*
X-7000D01*
X-7500Y0D02*
X-7000D01*
X-7500Y-750D02*
X-7000D01*
X-7500Y-1500D02*
X-7000D01*
Y750D02*
X-6878Y872D01*
X-7000Y1500D02*
X-6628Y1128D01*
X-7000Y2250D02*
X-6134Y1384D01*
X-7000Y3000D02*
X-5640Y1640D01*
X-7000Y0D02*
X-6384Y616D01*
X-7000Y-750D02*
X-5890Y360D01*
X-7000Y-1500D02*
X-5396Y104D01*
X-6384Y616D02*
X-4983D01*
X-6878Y872D02*
X-4983D01*
X-5396Y104D02*
X-4983D01*
X-6628Y1128D02*
X-4983D01*
X-5640Y1640D02*
X-4983D01*
X-5890Y360D02*
X-4983D01*
X-6134Y1384D02*
X-4983D01*
Y1896D02*
X-4436D01*
X-3364D02*
X-2817D01*
X-5450Y2950D02*
Y2953D01*
X-2734Y2947D02*
Y2950D01*
X-5050Y-219D02*
X-4983Y-152D01*
X-300Y1000D02*
X0D01*
X-300Y1500D02*
X0D01*
X-2817Y1640D02*
X-2360D01*
X-2817Y1384D02*
X-2266D01*
X-7000Y4250D02*
X-6750Y4000D01*
X0D01*
X-7500Y4250D02*
X-7000D01*
X-6950Y5000D02*
X-6450Y4500D01*
X0D01*
X-7500Y5000D02*
X-6950D01*
X0Y500D02*
X250Y750D01*
X500Y1000D01*
X-2266Y1384D02*
X-1150Y2500D01*
X0D01*
X-2360Y1640D02*
X-1000Y3000D01*
X0D01*
X-2122Y1128D02*
X-1700Y1550D01*
X-2817Y1128D02*
X-2122D01*
X-1878Y872D02*
X-1450Y1300D01*
X-2817Y872D02*
X-1878D01*
X-1634Y616D02*
X-1200Y1050D01*
X-2817Y616D02*
X-1634D01*
X-2817Y360D02*
X-1440D01*
X-300Y1500D01*
X-2817Y104D02*
X-1196D01*
X-300Y1000D01*
X2250Y3750D02*
X2500Y3500D01*
X2250Y3750D02*
X2500Y4000D01*
X2000D02*
X2250Y4250D01*
X1950Y2500D02*
X2000D01*
X1700Y2250D02*
X1950Y2500D01*
X500Y3500D02*
X750Y3250D01*
X500Y3000D02*
X750Y2750D01*
X700Y1800D02*
X750D01*
X500Y2000D02*
X700Y1800D01*
D19*
X4500Y-3000D02*
Y-3500D01*
Y-3000D02*
X4286D01*
X4214Y-3024D01*
X4191Y-3048D01*
X4167Y-3095D01*
Y-3143D01*
X4191Y-3191D01*
X4214Y-3214D01*
X4286Y-3238D01*
X4500D02*
X4286D01*
X4214Y-3262D01*
X4191Y-3286D01*
X4167Y-3333D01*
Y-3405D01*
X4191Y-3452D01*
X4214Y-3476D01*
X4286Y-3500D01*
X4500D01*
X3912Y-3000D02*
X3960Y-3024D01*
X4007Y-3072D01*
X4031Y-3119D01*
X4055Y-3191D01*
Y-3310D01*
X4031Y-3381D01*
X4007Y-3429D01*
X3960Y-3476D01*
X3912Y-3500D01*
X3817D01*
X3769Y-3476D01*
X3722Y-3429D01*
X3698Y-3381D01*
X3674Y-3310D01*
Y-3191D01*
X3698Y-3119D01*
X3722Y-3072D01*
X3769Y-3024D01*
X3817Y-3000D01*
X3912D01*
X3391D02*
Y-3500D01*
X3557Y-3000D02*
X3224D01*
X2998D02*
Y-3500D01*
X3165Y-3000D02*
X2831D01*
X2629D02*
X2677Y-3024D01*
X2724Y-3072D01*
X2748Y-3119D01*
X2772Y-3191D01*
Y-3310D01*
X2748Y-3381D01*
X2724Y-3429D01*
X2677Y-3476D01*
X2629Y-3500D01*
X2534D01*
X2486Y-3476D01*
X2439Y-3429D01*
X2415Y-3381D01*
X2391Y-3310D01*
Y-3191D01*
X2415Y-3119D01*
X2439Y-3072D01*
X2486Y-3024D01*
X2534Y-3000D01*
X2629D01*
X2274D02*
Y-3500D01*
Y-3000D02*
X2084Y-3500D01*
X1893Y-3000D02*
X2084Y-3500D01*
X1893Y-3000D02*
Y-3500D01*
D20*
X-12000Y18857D02*
D03*
X-11409D02*
D03*
X-10228Y20826D02*
D03*
X-9638D02*
D03*
X-12000D02*
D03*
X-9047D02*
D03*
Y19842D02*
D03*
Y18857D02*
D03*
Y17873D02*
D03*
Y16889D02*
D03*
Y15905D02*
D03*
Y14920D02*
D03*
Y13936D02*
D03*
Y12952D02*
D03*
Y11968D02*
D03*
X-9638Y19842D02*
D03*
Y18857D02*
D03*
Y17873D02*
D03*
Y16889D02*
D03*
Y15905D02*
D03*
Y14920D02*
D03*
Y13936D02*
D03*
Y12952D02*
D03*
Y11968D02*
D03*
X-10228Y19842D02*
D03*
Y18857D02*
D03*
Y17873D02*
D03*
Y16889D02*
D03*
Y15905D02*
D03*
Y14920D02*
D03*
Y13936D02*
D03*
Y12952D02*
D03*
Y11968D02*
D03*
X-10819Y20826D02*
D03*
Y19842D02*
D03*
Y18857D02*
D03*
Y17873D02*
D03*
Y16889D02*
D03*
Y15905D02*
D03*
Y14920D02*
D03*
Y13936D02*
D03*
Y12952D02*
D03*
Y11968D02*
D03*
X-11409Y20826D02*
D03*
Y19842D02*
D03*
Y17873D02*
D03*
Y16889D02*
D03*
Y15905D02*
D03*
Y14920D02*
D03*
Y13936D02*
D03*
Y12952D02*
D03*
Y11968D02*
D03*
X-12000D02*
D03*
Y12952D02*
D03*
Y13936D02*
D03*
Y14920D02*
D03*
Y15905D02*
D03*
Y16889D02*
D03*
Y17873D02*
D03*
Y19842D02*
D03*
X-9047Y5858D02*
D03*
Y4874D02*
D03*
Y3890D02*
D03*
Y2906D02*
D03*
Y1921D02*
D03*
Y937D02*
D03*
Y-47D02*
D03*
Y-1032D02*
D03*
Y-2016D02*
D03*
Y-3000D02*
D03*
X-9638Y5858D02*
D03*
Y4874D02*
D03*
Y3890D02*
D03*
Y2906D02*
D03*
Y1921D02*
D03*
Y937D02*
D03*
Y-47D02*
D03*
Y-1032D02*
D03*
Y-2016D02*
D03*
Y-3000D02*
D03*
X-10228Y5858D02*
D03*
Y4874D02*
D03*
Y3890D02*
D03*
Y2906D02*
D03*
Y1921D02*
D03*
Y937D02*
D03*
Y-47D02*
D03*
Y-1032D02*
D03*
Y-2016D02*
D03*
Y-3000D02*
D03*
X-10819Y5858D02*
D03*
Y4874D02*
D03*
Y3890D02*
D03*
Y2906D02*
D03*
Y1921D02*
D03*
Y937D02*
D03*
Y-47D02*
D03*
Y-1032D02*
D03*
Y-2016D02*
D03*
Y-3000D02*
D03*
X-11409Y5858D02*
D03*
Y4874D02*
D03*
Y3890D02*
D03*
Y2906D02*
D03*
Y1921D02*
D03*
Y937D02*
D03*
Y-47D02*
D03*
Y-1032D02*
D03*
Y-2016D02*
D03*
Y-3000D02*
D03*
X-12000D02*
D03*
Y-2016D02*
D03*
Y-1032D02*
D03*
Y-47D02*
D03*
Y937D02*
D03*
Y1921D02*
D03*
Y2906D02*
D03*
Y3890D02*
D03*
Y4874D02*
D03*
Y5858D02*
D03*
D21*
X463Y-2648D02*
D03*
Y22155D02*
D03*
D22*
X50Y-955D02*
D03*
X1250Y20455D02*
D03*
D23*
X750Y18893D02*
D03*
Y18607D02*
D03*
X1550Y6650D02*
D03*
X850Y7000D02*
D03*
X1314Y7000D02*
D03*
X1650Y6100D02*
D03*
X3400Y5100D02*
D03*
X3400Y5585D02*
D03*
X3900Y4300D02*
D03*
X4400Y4000D02*
D03*
X3450Y-2000D02*
D03*
Y-1000D02*
D03*
Y0D02*
D03*
X3950Y650D02*
D03*
X250Y9750D02*
D03*
X1750Y11393D02*
D03*
Y11107D02*
D03*
X-4100Y350D02*
D03*
X-3700D02*
D03*
X2250Y5750D02*
D03*
Y1750D02*
D03*
Y7750D02*
D03*
Y9250D02*
D03*
Y11750D02*
D03*
Y13750D02*
D03*
Y19250D02*
D03*
X250Y5250D02*
D03*
Y6750D02*
D03*
Y8250D02*
D03*
Y19250D02*
D03*
Y15750D02*
D03*
Y14250D02*
D03*
Y11250D02*
D03*
Y18250D02*
D03*
Y17250D02*
D03*
X2250Y18250D02*
D03*
Y17250D02*
D03*
Y16250D02*
D03*
Y15250D02*
D03*
X900Y16350D02*
D03*
Y18350D02*
D03*
X250Y750D02*
D03*
X900Y19150D02*
D03*
Y17150D02*
D03*
X950Y14900D02*
D03*
Y15600D02*
D03*
X-2350Y2950D02*
D03*
X250Y250D02*
D03*
Y2250D02*
D03*
Y3750D02*
D03*
X750Y10893D02*
D03*
Y10607D02*
D03*
Y13893D02*
D03*
Y13607D02*
D03*
Y15393D02*
D03*
Y15107D02*
D03*
Y16607D02*
D03*
Y16893D02*
D03*
X1600Y15350D02*
D03*
Y16150D02*
D03*
X950Y12600D02*
D03*
Y11900D02*
D03*
Y13400D02*
D03*
Y14100D02*
D03*
X1600Y12350D02*
D03*
Y13150D02*
D03*
Y13850D02*
D03*
Y14650D02*
D03*
X1750Y15607D02*
D03*
Y15893D02*
D03*
X-1050Y9950D02*
D03*
X950Y8900D02*
D03*
Y9600D02*
D03*
X1600Y9350D02*
D03*
Y10150D02*
D03*
X950Y10400D02*
D03*
Y11100D02*
D03*
X1600Y10850D02*
D03*
Y11650D02*
D03*
X-900Y13150D02*
D03*
X1750Y14393D02*
D03*
Y14107D02*
D03*
X750Y9107D02*
D03*
Y9393D02*
D03*
X-5450Y2950D02*
D03*
X-5050Y-550D02*
D03*
X-1700Y1550D02*
D03*
X-1450Y1300D02*
D03*
X-1200Y1050D02*
D03*
X750Y3250D02*
D03*
Y1800D02*
D03*
Y2750D02*
D03*
X2250Y4250D02*
D03*
Y3750D02*
D03*
X1700Y2250D02*
D03*
X3400Y2484D02*
D03*
X-750Y9843D02*
D03*
Y9557D02*
D03*
X1750Y9607D02*
D03*
Y9893D02*
D03*
X750Y12393D02*
D03*
Y12107D02*
D03*
X-350Y12550D02*
D03*
X-650Y12993D02*
D03*
X1750Y12893D02*
D03*
X-650Y12707D02*
D03*
X1750Y12607D02*
D03*
D30*
X-4436Y2953D02*
D03*
X-5066D02*
D03*
X-3364Y2947D02*
D03*
X-2734D02*
D03*
D31*
X-4983Y-152D02*
D03*
Y104D02*
D03*
Y360D02*
D03*
Y616D02*
D03*
Y872D02*
D03*
Y1128D02*
D03*
Y1384D02*
D03*
Y1640D02*
D03*
Y1896D02*
D03*
Y2152D02*
D03*
X-2817Y-152D02*
D03*
Y104D02*
D03*
Y360D02*
D03*
Y616D02*
D03*
Y872D02*
D03*
Y1128D02*
D03*
Y1384D02*
D03*
Y1640D02*
D03*
Y1896D02*
D03*
Y2152D02*
D03*
D32*
X0Y0D02*
D03*
Y500D02*
D03*
Y1000D02*
D03*
Y1500D02*
D03*
Y2000D02*
D03*
Y2500D02*
D03*
Y3000D02*
D03*
Y3500D02*
D03*
Y4000D02*
D03*
Y4500D02*
D03*
Y5000D02*
D03*
Y5500D02*
D03*
Y6000D02*
D03*
Y6500D02*
D03*
Y7000D02*
D03*
Y7500D02*
D03*
Y8000D02*
D03*
Y8500D02*
D03*
Y9000D02*
D03*
Y9500D02*
D03*
Y10000D02*
D03*
Y10500D02*
D03*
Y11000D02*
D03*
Y11500D02*
D03*
Y12000D02*
D03*
Y12500D02*
D03*
Y13000D02*
D03*
Y13500D02*
D03*
Y14000D02*
D03*
Y14500D02*
D03*
Y15000D02*
D03*
Y15500D02*
D03*
Y16000D02*
D03*
Y16500D02*
D03*
Y17000D02*
D03*
Y17500D02*
D03*
Y18000D02*
D03*
Y18500D02*
D03*
Y19000D02*
D03*
Y19500D02*
D03*
X500Y0D02*
D03*
Y500D02*
D03*
Y1000D02*
D03*
Y1500D02*
D03*
Y2000D02*
D03*
Y2500D02*
D03*
Y3000D02*
D03*
Y3500D02*
D03*
Y4000D02*
D03*
Y4500D02*
D03*
Y5000D02*
D03*
Y5500D02*
D03*
Y6000D02*
D03*
Y6500D02*
D03*
Y7000D02*
D03*
Y7500D02*
D03*
Y8000D02*
D03*
Y8500D02*
D03*
Y9000D02*
D03*
Y9500D02*
D03*
Y10000D02*
D03*
Y10500D02*
D03*
Y11000D02*
D03*
Y11500D02*
D03*
Y12000D02*
D03*
Y12500D02*
D03*
Y13000D02*
D03*
Y13500D02*
D03*
Y14000D02*
D03*
Y14500D02*
D03*
Y15000D02*
D03*
Y15500D02*
D03*
Y16000D02*
D03*
Y16500D02*
D03*
Y17000D02*
D03*
Y17500D02*
D03*
Y18000D02*
D03*
Y18500D02*
D03*
Y19000D02*
D03*
Y19500D02*
D03*
X2000Y0D02*
D03*
Y500D02*
D03*
Y1000D02*
D03*
Y1500D02*
D03*
Y2000D02*
D03*
Y2500D02*
D03*
Y3000D02*
D03*
Y3500D02*
D03*
Y4000D02*
D03*
Y4500D02*
D03*
Y5000D02*
D03*
Y5500D02*
D03*
Y6000D02*
D03*
Y6500D02*
D03*
Y7000D02*
D03*
Y7500D02*
D03*
Y8000D02*
D03*
Y8500D02*
D03*
Y9000D02*
D03*
Y9500D02*
D03*
Y10000D02*
D03*
Y10500D02*
D03*
Y11000D02*
D03*
Y11500D02*
D03*
Y12000D02*
D03*
Y12500D02*
D03*
Y13000D02*
D03*
Y13500D02*
D03*
Y14000D02*
D03*
Y14500D02*
D03*
Y15000D02*
D03*
Y15500D02*
D03*
Y16000D02*
D03*
Y16500D02*
D03*
Y17000D02*
D03*
Y17500D02*
D03*
Y18000D02*
D03*
Y18500D02*
D03*
Y19000D02*
D03*
Y19500D02*
D03*
X2500Y0D02*
D03*
Y500D02*
D03*
Y1000D02*
D03*
Y1500D02*
D03*
Y2000D02*
D03*
Y2500D02*
D03*
Y3000D02*
D03*
Y3500D02*
D03*
Y4000D02*
D03*
Y4500D02*
D03*
Y5000D02*
D03*
Y5500D02*
D03*
Y6000D02*
D03*
Y6500D02*
D03*
Y7000D02*
D03*
Y7500D02*
D03*
Y8000D02*
D03*
Y8500D02*
D03*
Y9000D02*
D03*
Y9500D02*
D03*
Y10000D02*
D03*
Y10500D02*
D03*
Y11000D02*
D03*
Y11500D02*
D03*
Y12000D02*
D03*
Y12500D02*
D03*
Y13000D02*
D03*
Y13500D02*
D03*
Y14000D02*
D03*
Y14500D02*
D03*
Y15000D02*
D03*
Y15500D02*
D03*
Y16000D02*
D03*
Y16500D02*
D03*
Y17000D02*
D03*
Y17500D02*
D03*
Y18000D02*
D03*
Y18500D02*
D03*
Y19000D02*
D03*
Y19500D02*
D03*
D33*
X-7500Y6500D02*
D03*
Y5750D02*
D03*
M02*
