M48
;Layer_Color=9474304
;FILE_FORMAT=2:4
INCH,LZ
;TYPE=PLATED
T1F00S00C0.0118
T2F00S00C0.0266
T3F00S00C0.1063
;TYPE=NON_PLATED
T4F00S00C0.0512
%
T01
X00345Y-002
Y-001
Y0
X00395Y00065
X0034Y002484
X00225Y00175
X0017Y00225
X00075Y0018
Y00275
Y00325
X00225Y00375
Y00425
Y00575
X00165Y0061
X00155Y00665
X001314Y007
X00085Y007
X00095Y0089
X00075Y009107
Y009393
X00095Y0096
Y0104
X00075Y010607
Y010893
X00095Y0111
Y0119
X0016Y01165
X00175Y011393
Y011107
X0016Y01085
Y01015
X00175Y009893
Y009607
X0016Y00935
X00225Y00925
Y00775
X0034Y005585
X0034Y0051
X0039Y0043
X0044Y004
X00225Y01175
X00025Y01125
Y00975
X-00075Y009843
Y009557
X-00105Y00995
X00025Y00825
Y00675
Y00525
Y00375
Y00225
Y00075
Y00025
X-0012Y00105
X-00145Y0013
X-0017Y00155
X-00235Y00295
X-00545
X-00505Y-00055
X-0041Y00035
X-0037
X-00065Y012707
Y012993
X-0009Y01315
X-00035Y01255
X00025Y01425
Y01575
Y01725
Y01825
Y01925
X0009Y01915
X00075Y018893
Y018607
X0009Y01835
Y01715
X00075Y016893
Y016607
X0009Y01635
X00095Y0156
X00075Y015393
Y015107
X00095Y0149
Y0141
X00075Y013893
Y013607
X00095Y0134
Y0126
X00075Y012393
Y012107
X0016Y01235
X00175Y012607
Y012893
X0016Y01315
Y01385
X00175Y014107
Y014393
X0016Y01465
Y01535
X00175Y015607
Y015893
X0016Y01615
X00225Y01625
Y01525
Y01375
Y01725
Y01825
Y01925
T02
X-012Y-003
X-011409
X-010819
X-010228
X-009638
X-009047
Y-002016
X-009638
X-010228
X-010819
X-011409
X-012
Y-001032
X-011409
X-010819
X-010228
X-009638
X-009047
Y-000047
X-009638
X-010228
X-010819
X-011409
X-012
Y000937
X-011409
X-010819
X-010228
X-009638
X-009047
Y001921
X-009638
X-010228
X-010819
X-011409
X-012
Y002906
X-011409
X-010819
X-010228
X-009638
X-009047
Y00389
X-009638
X-010228
X-010819
X-011409
X-012
Y004874
X-011409
X-010819
X-010228
X-009638
X-009047
Y005858
X-009638
X-010228
X-010819
X-011409
X-012
Y011968
X-011409
X-010819
X-010228
X-009638
X-009047
Y012952
X-009638
X-010228
X-010819
X-011409
X-012
Y013936
X-011409
X-010819
X-010228
X-009638
X-009047
Y01492
X-009638
X-010228
X-010819
X-011409
X-012
Y015905
X-011409
X-010819
X-010228
X-009638
X-009047
Y016889
X-009638
X-010228
X-010819
X-011409
X-012
Y017873
X-011409
X-010819
X-010228
X-009638
X-009047
Y018857
X-009638
X-010228
X-010819
X-011409
X-012
Y019842
X-011409
X-010819
X-010228
X-009638
X-009047
Y020826
X-009638
X-010228
X-010819
X-011409
X-012
T03
X000463Y-002648
Y022155
T04
X00005Y-000955
X00125Y020455
M30
